<svg xmlns="http://www.w3.org/2000/svg" xmlns:xlink="http://www.w3.org/1999/xlink" width="18" height="18" version="1.1" viewBox="0 0 18 18"><title>edit</title><desc>Created with Sketch.</desc><g id="Page-1" fill="none" fill-rule="evenodd" stroke="none" stroke-width="1"><g id="Artboard" fill="#4299E1" fill-rule="nonzero" transform="translate(-707.000000, -439.000000)"><g id="edit" transform="translate(707.000000, 439.000000)"><rect id="Rectangle-path" width="11.922" height="6.299" x="3.056" y="5.823" transform="translate(9.017444, 8.972759) rotate(-45.000000) translate(-9.017444, -8.972759)"/><path id="Shape" d="M17.7175139,3.58441519 L14.4277519,0.247989873 C14.1011089,-0.0786531646 13.5878127,-0.0786531646 13.2845013,0.224658228 C13.2845013,0.224658228 13.2845013,0.224658228 13.2611696,0.247989873 L11.8146076,1.6945519 L16.2709519,6.17422785 L17.7175139,4.72766582 C18.044157,4.40102278 18.044157,3.88772658 17.7175139,3.58441519 Z"/><path id="Shape" d="M1.92198987,11.9371443 L0.0787898734,16.8834532 C-0.0845316456,17.3034228 0.125453165,17.7700557 0.545422785,17.9333772 C0.732075949,18.0033722 0.942060759,18.0033722 1.12871392,17.9333772 L6.07502278,16.0668456 L1.92198987,11.9371443 Z"/></g></g></g></svg>